<mxfile host="app.diagrams.net" modified="2023-12-07T07:03:11.537Z" agent="Mozilla/5.0 (Windows NT 10.0; Win64; x64) AppleWebKit/537.36 (KHTML, like Gecko) Chrome/119.0.0.0 Safari/537.36" etag="8STlYh7nar6neIe3zNof" version="22.1.7" type="github">
  <diagram name="Page-1" id="JVTGZR8RQBaIb5BErgDc">
    <mxGraphModel dx="934" dy="558" grid="1" gridSize="10" guides="1" tooltips="1" connect="1" arrows="1" fold="1" page="1" pageScale="1" pageWidth="850" pageHeight="1100" math="0" shadow="0">
      <root>
        <mxCell id="0" />
        <mxCell id="1" parent="0" />
        <mxCell id="OEwKVlUi4WcwfevZS17b-1" value="" style="rounded=1;whiteSpace=wrap;html=1;" vertex="1" parent="1">
          <mxGeometry x="120" y="320" width="200" height="60" as="geometry" />
        </mxCell>
        <mxCell id="OEwKVlUi4WcwfevZS17b-2" value="" style="rounded=1;whiteSpace=wrap;html=1;" vertex="1" parent="1">
          <mxGeometry x="80" y="200" width="110" height="40" as="geometry" />
        </mxCell>
        <mxCell id="OEwKVlUi4WcwfevZS17b-3" value="" style="rounded=1;whiteSpace=wrap;html=1;" vertex="1" parent="1">
          <mxGeometry x="260" y="200" width="110" height="40" as="geometry" />
        </mxCell>
        <mxCell id="OEwKVlUi4WcwfevZS17b-4" value="" style="rounded=1;whiteSpace=wrap;html=1;" vertex="1" parent="1">
          <mxGeometry x="440" y="200" width="110" height="40" as="geometry" />
        </mxCell>
        <mxCell id="OEwKVlUi4WcwfevZS17b-5" value="" style="rounded=1;whiteSpace=wrap;html=1;" vertex="1" parent="1">
          <mxGeometry x="610" y="200" width="110" height="40" as="geometry" />
        </mxCell>
        <mxCell id="OEwKVlUi4WcwfevZS17b-6" value="" style="endArrow=classic;html=1;rounded=0;exitX=0.5;exitY=0;exitDx=0;exitDy=0;entryX=0.607;entryY=1.03;entryDx=0;entryDy=0;entryPerimeter=0;" edge="1" parent="1" source="OEwKVlUi4WcwfevZS17b-1" target="OEwKVlUi4WcwfevZS17b-2">
          <mxGeometry width="50" height="50" relative="1" as="geometry">
            <mxPoint x="390" y="360" as="sourcePoint" />
            <mxPoint x="440" y="310" as="targetPoint" />
          </mxGeometry>
        </mxCell>
        <mxCell id="OEwKVlUi4WcwfevZS17b-7" value="" style="endArrow=classic;html=1;rounded=0;" edge="1" parent="1">
          <mxGeometry width="50" height="50" relative="1" as="geometry">
            <mxPoint x="190" y="220" as="sourcePoint" />
            <mxPoint x="260" y="220" as="targetPoint" />
            <Array as="points" />
          </mxGeometry>
        </mxCell>
        <mxCell id="OEwKVlUi4WcwfevZS17b-8" value="" style="endArrow=classic;html=1;rounded=0;exitX=1;exitY=0.5;exitDx=0;exitDy=0;" edge="1" parent="1" source="OEwKVlUi4WcwfevZS17b-3">
          <mxGeometry width="50" height="50" relative="1" as="geometry">
            <mxPoint x="390" y="270" as="sourcePoint" />
            <mxPoint x="440" y="220" as="targetPoint" />
          </mxGeometry>
        </mxCell>
        <mxCell id="OEwKVlUi4WcwfevZS17b-9" value="" style="endArrow=classic;html=1;rounded=0;exitX=1;exitY=0.5;exitDx=0;exitDy=0;" edge="1" parent="1" source="OEwKVlUi4WcwfevZS17b-4">
          <mxGeometry width="50" height="50" relative="1" as="geometry">
            <mxPoint x="560" y="270" as="sourcePoint" />
            <mxPoint x="610" y="220" as="targetPoint" />
          </mxGeometry>
        </mxCell>
        <mxCell id="OEwKVlUi4WcwfevZS17b-10" value="" style="shape=cube;whiteSpace=wrap;html=1;boundedLbl=1;backgroundOutline=1;darkOpacity=0.05;darkOpacity2=0.1;size=20;" vertex="1" parent="1">
          <mxGeometry x="80" y="470" width="90" height="80" as="geometry" />
        </mxCell>
        <mxCell id="OEwKVlUi4WcwfevZS17b-12" value="" style="shape=cube;whiteSpace=wrap;html=1;boundedLbl=1;backgroundOutline=1;darkOpacity=0.05;darkOpacity2=0.1;size=20;" vertex="1" parent="1">
          <mxGeometry x="240" y="480" width="90" height="80" as="geometry" />
        </mxCell>
        <mxCell id="OEwKVlUi4WcwfevZS17b-13" value="" style="shape=cube;whiteSpace=wrap;html=1;boundedLbl=1;backgroundOutline=1;darkOpacity=0.05;darkOpacity2=0.1;size=20;" vertex="1" parent="1">
          <mxGeometry x="400" y="480" width="90" height="80" as="geometry" />
        </mxCell>
        <mxCell id="OEwKVlUi4WcwfevZS17b-14" value="" style="shape=cube;whiteSpace=wrap;html=1;boundedLbl=1;backgroundOutline=1;darkOpacity=0.05;darkOpacity2=0.1;size=20;" vertex="1" parent="1">
          <mxGeometry x="560" y="480" width="90" height="80" as="geometry" />
        </mxCell>
        <mxCell id="OEwKVlUi4WcwfevZS17b-17" value="" style="shape=flexArrow;endArrow=classic;startArrow=classic;html=1;rounded=0;width=3.5294117647058822;startSize=6.376470588235295;startWidth=13.494809688581315;endSize=6.376470588235295;endWidth=13.494809688581315;" edge="1" parent="1">
          <mxGeometry width="100" height="100" relative="1" as="geometry">
            <mxPoint x="170" y="519.41" as="sourcePoint" />
            <mxPoint x="250" y="519.41" as="targetPoint" />
          </mxGeometry>
        </mxCell>
        <mxCell id="OEwKVlUi4WcwfevZS17b-19" value="" style="shape=flexArrow;endArrow=classic;startArrow=classic;html=1;rounded=0;width=3.5294117647058822;startSize=6.376470588235295;startWidth=13.494809688581315;endSize=6.376470588235295;endWidth=13.494809688581315;" edge="1" parent="1">
          <mxGeometry width="100" height="100" relative="1" as="geometry">
            <mxPoint x="330" y="520" as="sourcePoint" />
            <mxPoint x="410" y="520" as="targetPoint" />
            <Array as="points" />
          </mxGeometry>
        </mxCell>
        <mxCell id="OEwKVlUi4WcwfevZS17b-20" value="" style="shape=flexArrow;endArrow=classic;startArrow=classic;html=1;rounded=0;width=3.5294117647058822;startSize=6.376470588235295;startWidth=13.494809688581315;endSize=6.376470588235295;endWidth=13.494809688581315;" edge="1" parent="1">
          <mxGeometry width="100" height="100" relative="1" as="geometry">
            <mxPoint x="490" y="519.41" as="sourcePoint" />
            <mxPoint x="570" y="519.41" as="targetPoint" />
          </mxGeometry>
        </mxCell>
        <mxCell id="OEwKVlUi4WcwfevZS17b-22" value="" style="endArrow=classic;html=1;rounded=0;entryX=0.646;entryY=-0.026;entryDx=0;entryDy=0;entryPerimeter=0;exitX=0.5;exitY=1;exitDx=0;exitDy=0;" edge="1" parent="1" source="OEwKVlUi4WcwfevZS17b-1" target="OEwKVlUi4WcwfevZS17b-10">
          <mxGeometry width="50" height="50" relative="1" as="geometry">
            <mxPoint x="390" y="530" as="sourcePoint" />
            <mxPoint x="440" y="480" as="targetPoint" />
            <Array as="points" />
          </mxGeometry>
        </mxCell>
        <object label="&lt;font style=&quot;font-size: 14px;&quot;&gt;Manufacturer&lt;/font&gt;" Manufacturer="" id="OEwKVlUi4WcwfevZS17b-24">
          <mxCell style="text;html=1;strokeColor=none;fillColor=none;align=center;verticalAlign=middle;whiteSpace=wrap;rounded=0;" vertex="1" parent="1">
            <mxGeometry x="105" y="205" width="60" height="30" as="geometry" />
          </mxCell>
        </object>
        <mxCell id="OEwKVlUi4WcwfevZS17b-25" value="&lt;font style=&quot;font-size: 14px;&quot;&gt;Distributor&lt;/font&gt;" style="text;html=1;strokeColor=none;fillColor=none;align=center;verticalAlign=middle;whiteSpace=wrap;rounded=0;" vertex="1" parent="1">
          <mxGeometry x="285" y="205" width="60" height="30" as="geometry" />
        </mxCell>
        <mxCell id="OEwKVlUi4WcwfevZS17b-26" value="&lt;font style=&quot;font-size: 14px;&quot;&gt;Retailer&lt;/font&gt;" style="text;html=1;strokeColor=none;fillColor=none;align=center;verticalAlign=middle;whiteSpace=wrap;rounded=0;" vertex="1" parent="1">
          <mxGeometry x="465" y="205" width="60" height="30" as="geometry" />
        </mxCell>
        <mxCell id="OEwKVlUi4WcwfevZS17b-27" value="&lt;font style=&quot;font-size: 14px;&quot;&gt;Customer&lt;/font&gt;" style="text;html=1;strokeColor=none;fillColor=none;align=center;verticalAlign=middle;whiteSpace=wrap;rounded=0;" vertex="1" parent="1">
          <mxGeometry x="635" y="205" width="60" height="30" as="geometry" />
        </mxCell>
        <mxCell id="OEwKVlUi4WcwfevZS17b-28" value="&lt;font style=&quot;font-size: 14px;&quot;&gt;Drug Administrator&lt;/font&gt;" style="text;html=1;strokeColor=none;fillColor=none;align=center;verticalAlign=middle;whiteSpace=wrap;rounded=0;" vertex="1" parent="1">
          <mxGeometry x="135" y="320" width="170" height="60" as="geometry" />
        </mxCell>
        <mxCell id="OEwKVlUi4WcwfevZS17b-29" value="Validate genesis block" style="text;html=1;strokeColor=none;fillColor=none;align=center;verticalAlign=middle;whiteSpace=wrap;rounded=0;" vertex="1" parent="1">
          <mxGeometry x="195" y="410" width="110" height="30" as="geometry" />
        </mxCell>
        <mxCell id="OEwKVlUi4WcwfevZS17b-30" value="Validation Provide" style="text;html=1;strokeColor=none;fillColor=none;align=center;verticalAlign=middle;whiteSpace=wrap;rounded=0;" vertex="1" parent="1">
          <mxGeometry x="175" y="250" width="130" height="50" as="geometry" />
        </mxCell>
        <mxCell id="OEwKVlUi4WcwfevZS17b-34" value="&lt;h1 style=&quot;font-size: 16px;&quot;&gt;Genesis Block&lt;/h1&gt;&lt;p style=&quot;line-height: 0%;&quot;&gt;Generate Hash&lt;/p&gt;&lt;p style=&quot;line-height: 50%;&quot;&gt;Information of Block&lt;/p&gt;&lt;p style=&quot;line-height: 0%;&quot;&gt;Location of the transaction&lt;/p&gt;&lt;p style=&quot;line-height: 0%;&quot;&gt;&lt;br&gt;&lt;/p&gt;&lt;p style=&quot;line-height: 0%;&quot;&gt;&lt;br&gt;&lt;/p&gt;&lt;p style=&quot;line-height: 0%;&quot;&gt;&lt;br&gt;&lt;/p&gt;&lt;p style=&quot;line-height: 0%;&quot;&gt;&amp;nbsp;&lt;/p&gt;" style="text;html=1;strokeColor=none;fillColor=none;spacing=5;spacingTop=-20;whiteSpace=wrap;overflow=hidden;rounded=0;" vertex="1" parent="1">
          <mxGeometry x="60" y="580" width="150" height="90" as="geometry" />
        </mxCell>
        <mxCell id="OEwKVlUi4WcwfevZS17b-35" value="&lt;h1 style=&quot;line-height: 30%;&quot;&gt;&lt;font style=&quot;font-size: 16px;&quot;&gt;Block 1&lt;/font&gt;&lt;/h1&gt;&lt;p style=&quot;line-height: 0%;&quot;&gt;Previous block Hash&lt;/p&gt;&lt;p style=&quot;line-height: 0%;&quot;&gt;Hash of the block&lt;/p&gt;&lt;p style=&quot;line-height: 0%;&quot;&gt;Information of Block&lt;/p&gt;&lt;p style=&quot;line-height: 0%;&quot;&gt;Location of transaction&lt;/p&gt;" style="text;html=1;strokeColor=none;fillColor=none;spacing=5;spacingTop=-20;whiteSpace=wrap;overflow=hidden;rounded=0;" vertex="1" parent="1">
          <mxGeometry x="240" y="575" width="150" height="100" as="geometry" />
        </mxCell>
        <mxCell id="OEwKVlUi4WcwfevZS17b-36" value="&lt;h1 style=&quot;font-size: 16px;&quot;&gt;Block n-1&lt;/h1&gt;&lt;p style=&quot;line-height: 0%;&quot;&gt;Previous Block Hash&lt;/p&gt;&lt;p style=&quot;line-height: 0%;&quot;&gt;Hash of the Block&lt;/p&gt;&lt;p style=&quot;line-height: 0%;&quot;&gt;Information of Block&lt;/p&gt;&lt;p style=&quot;line-height: 0%;&quot;&gt;Location of Transaction&lt;/p&gt;&lt;p style=&quot;line-height: 0%;&quot;&gt;&lt;br&gt;&lt;/p&gt;" style="text;html=1;strokeColor=none;fillColor=none;spacing=5;spacingTop=-20;whiteSpace=wrap;overflow=hidden;rounded=0;" vertex="1" parent="1">
          <mxGeometry x="400" y="580" width="150" height="80" as="geometry" />
        </mxCell>
        <mxCell id="OEwKVlUi4WcwfevZS17b-38" value="&lt;h1 style=&quot;font-size: 16px;&quot;&gt;Block n&lt;/h1&gt;&lt;p style=&quot;line-height: 0%;&quot;&gt;Previous Block Hash&lt;/p&gt;&lt;p style=&quot;line-height: 0%;&quot;&gt;Hash of this Block&lt;/p&gt;&lt;p style=&quot;line-height: 0%;&quot;&gt;Information of this Block&lt;/p&gt;&lt;p style=&quot;line-height: 0%;&quot;&gt;Location of Transaction&lt;/p&gt;" style="text;html=1;strokeColor=none;fillColor=none;spacing=5;spacingTop=-20;whiteSpace=wrap;overflow=hidden;rounded=0;" vertex="1" parent="1">
          <mxGeometry x="570" y="580" width="150" height="80" as="geometry" />
        </mxCell>
        <mxCell id="OEwKVlUi4WcwfevZS17b-39" value="&lt;font style=&quot;font-size: 10px;&quot;&gt;Verified Medicine is Delivered to End User&lt;/font&gt;" style="text;html=1;strokeColor=none;fillColor=none;align=center;verticalAlign=middle;whiteSpace=wrap;rounded=0;" vertex="1" parent="1">
          <mxGeometry x="590" y="250" width="150" height="70" as="geometry" />
        </mxCell>
      </root>
    </mxGraphModel>
  </diagram>
</mxfile>
